# xmcd
#
# Track frame offsets: 
#        150
#        19640
#        35935
#        57647
#        72022
#        83417
#        97440
#        114802
#        131772
#        147195
#        162630
#        177880
#        190660
#        201017
#        214015
#        227540
#        238127
#        247765
#
# Disc length: 3501 seconds
#
# Revision: 0
# Processed by: cddbd v1.5.2PL0 Copyright (c) Steve Scherf et al.
# Submitted via: ExactAudioCopy v0.99pb5
#
DISCID=fa0dab12
DTITLE=Various Artist - 75 greatest country songs
DYEAR=1900
DGENRE=Country
TTITLE0=coward of the country
TTITLE1=the devil went down to georgia
TTITLE2=poncho and lefty
TTITLE3=marie laveau
TTITLE4=the battle of new orleans
TTITLE5=what's your mama's name
TTITLE6=seven spanish angels
TTITLE7=a boy named sue
TTITLE8=achy breaky heart
TTITLE9=i like it, i love it
TTITLE10=have mercy
TTITLE11=chantilly lace
TTITLE12=6 days on the road
TTITLE13=do you remember these
TTITLE14=mockingbird hill
TTITLE15=when you're ot, you're hot
TTITLE16=theme from the dukes of hazzard (good ol' boys)
TTITLE17=boot scootin' boogie
EXTD=
EXTT0=
EXTT1=
EXTT2=
EXTT3=
EXTT4=
EXTT5=
EXTT6=
EXTT7=
EXTT8=
EXTT9=
EXTT10=
EXTT11=
EXTT12=
EXTT13=
EXTT14=
EXTT15=
EXTT16=
EXTT17=
PLAYORDER=
